<svg xmlns="http://www.w3.org/2000/svg" xmlns:xlink="http://www.w3.org/1999/xlink" width="500" zoomAndPan="magnify" viewBox="0 0 375 374.999991" height="500" preserveAspectRatio="xMidYMid meet" version="1.0"><defs><g/></defs><g fill="#00459a" fill-opacity="1"><g transform="translate(83.606125, 194.732579)"><g><path d="M 2.296875 -22.984375 L 12.171875 -22.984375 C 15.785156 -22.984375 18.722656 -21.921875 20.984375 -19.796875 C 23.253906 -17.671875 24.390625 -14.898438 24.390625 -11.484375 C 24.390625 -8.097656 23.238281 -5.335938 20.9375 -3.203125 C 18.644531 -1.066406 15.648438 0 11.953125 0 L 2.296875 0 Z M 8.140625 -18.3125 L 8.140625 -4.65625 L 12.3125 -4.65625 C 14.101562 -4.65625 15.570312 -5.285156 16.71875 -6.546875 C 17.875 -7.804688 18.453125 -9.441406 18.453125 -11.453125 C 18.453125 -13.472656 17.847656 -15.117188 16.640625 -16.390625 C 15.441406 -17.671875 13.910156 -18.3125 12.046875 -18.3125 Z M 8.140625 -18.3125 "/></g></g></g><g fill="#00459a" fill-opacity="1"><g transform="translate(107.140525, 194.732579)"><g><path d="M 10.203125 -17.953125 C 12.640625 -17.953125 14.53125 -17.390625 15.875 -16.265625 C 17.21875 -15.140625 17.898438 -13.570312 17.921875 -11.5625 L 17.921875 0 L 12.375 0 L 12.375 -2.03125 C 11.21875 -0.5 9.410156 0.265625 6.953125 0.265625 C 5.097656 0.265625 3.625 -0.25 2.53125 -1.28125 C 1.4375 -2.3125 0.890625 -3.644531 0.890625 -5.28125 C 0.890625 -6.96875 1.472656 -8.273438 2.640625 -9.203125 C 3.816406 -10.140625 5.5 -10.617188 7.6875 -10.640625 L 12.34375 -10.640625 L 12.34375 -10.90625 C 12.34375 -11.78125 12.050781 -12.460938 11.46875 -12.953125 C 10.894531 -13.441406 10.035156 -13.6875 8.890625 -13.6875 C 7.296875 -13.6875 5.535156 -13.195312 3.609375 -12.21875 L 2 -15.953125 C 4.863281 -17.285156 7.597656 -17.953125 10.203125 -17.953125 Z M 8.703125 -3.578125 C 9.597656 -3.578125 10.382812 -3.800781 11.0625 -4.25 C 11.738281 -4.695312 12.164062 -5.28125 12.34375 -6 L 12.34375 -7.578125 L 8.765625 -7.578125 C 7.054688 -7.578125 6.203125 -6.941406 6.203125 -5.671875 C 6.203125 -5.015625 6.421875 -4.5 6.859375 -4.125 C 7.296875 -3.757812 7.910156 -3.578125 8.703125 -3.578125 Z M 8.703125 -3.578125 "/></g></g></g><g fill="#00459a" fill-opacity="1"><g transform="translate(125.193286, 194.732579)"><g><path d="M 13.859375 -17.953125 C 15.804688 -17.953125 17.367188 -17.332031 18.546875 -16.09375 C 19.734375 -14.863281 20.328125 -13.21875 20.328125 -11.15625 L 20.328125 0 L 14.671875 0 L 14.671875 -9.578125 C 14.671875 -10.609375 14.390625 -11.425781 13.828125 -12.03125 C 13.273438 -12.632812 12.519531 -12.9375 11.5625 -12.9375 C 10.550781 -12.9375 9.722656 -12.609375 9.078125 -11.953125 C 8.429688 -11.296875 8.050781 -10.429688 7.9375 -9.359375 L 7.9375 0 L 2.265625 0 L 2.265625 -17.6875 L 7.9375 -17.6875 L 7.9375 -14.8125 C 9.1875 -16.863281 11.160156 -17.910156 13.859375 -17.953125 Z M 13.859375 -17.953125 "/></g></g></g><g fill="#00459a" fill-opacity="1"><g transform="translate(145.642209, 194.732579)"><g><path d="M 10.203125 -17.953125 C 12.640625 -17.953125 14.53125 -17.390625 15.875 -16.265625 C 17.21875 -15.140625 17.898438 -13.570312 17.921875 -11.5625 L 17.921875 0 L 12.375 0 L 12.375 -2.03125 C 11.21875 -0.5 9.410156 0.265625 6.953125 0.265625 C 5.097656 0.265625 3.625 -0.25 2.53125 -1.28125 C 1.4375 -2.3125 0.890625 -3.644531 0.890625 -5.28125 C 0.890625 -6.96875 1.472656 -8.273438 2.640625 -9.203125 C 3.816406 -10.140625 5.5 -10.617188 7.6875 -10.640625 L 12.34375 -10.640625 L 12.34375 -10.90625 C 12.34375 -11.78125 12.050781 -12.460938 11.46875 -12.953125 C 10.894531 -13.441406 10.035156 -13.6875 8.890625 -13.6875 C 7.296875 -13.6875 5.535156 -13.195312 3.609375 -12.21875 L 2 -15.953125 C 4.863281 -17.285156 7.597656 -17.953125 10.203125 -17.953125 Z M 8.703125 -3.578125 C 9.597656 -3.578125 10.382812 -3.800781 11.0625 -4.25 C 11.738281 -4.695312 12.164062 -5.28125 12.34375 -6 L 12.34375 -7.578125 L 8.765625 -7.578125 C 7.054688 -7.578125 6.203125 -6.941406 6.203125 -5.671875 C 6.203125 -5.015625 6.421875 -4.5 6.859375 -4.125 C 7.296875 -3.757812 7.910156 -3.578125 8.703125 -3.578125 Z M 8.703125 -3.578125 "/></g></g></g><g fill="#00459a" fill-opacity="1"><g transform="translate(163.694971, 194.732579)"><g><path d="M 2.296875 -22.984375 L 12.3125 -22.984375 C 15.238281 -22.984375 17.507812 -22.285156 19.125 -20.890625 C 20.75 -19.503906 21.5625 -17.53125 21.5625 -14.96875 C 21.5625 -12.28125 20.75 -10.191406 19.125 -8.703125 C 17.507812 -7.210938 15.238281 -6.46875 12.3125 -6.46875 L 8.140625 -6.46875 L 8.140625 0 L 2.296875 0 Z M 8.140625 -18.390625 L 8.140625 -11.0625 L 12.015625 -11.0625 C 13.304688 -11.0625 14.300781 -11.378906 15 -12.015625 C 15.695312 -12.648438 16.046875 -13.566406 16.046875 -14.765625 C 16.046875 -15.953125 15.695312 -16.851562 15 -17.46875 C 14.300781 -18.082031 13.304688 -18.390625 12.015625 -18.390625 Z M 8.140625 -18.390625 "/></g></g></g><g fill="#00459a" fill-opacity="1"><g transform="translate(184.373671, 194.732579)"><g><path d="M 7.9375 -17.6875 L 7.9375 -14.703125 C 9.1875 -16.828125 11.101562 -17.910156 13.6875 -17.953125 L 13.6875 -12.828125 C 12.070312 -12.984375 10.75 -12.71875 9.71875 -12.03125 C 8.6875 -11.34375 8.09375 -10.363281 7.9375 -9.09375 L 7.9375 0 L 2.265625 0 L 2.265625 -17.6875 Z M 7.9375 -17.6875 "/></g></g></g><g fill="#00459a" fill-opacity="1"><g transform="translate(196.747846, 194.732579)"><g><path d="M 2.96875 -24.921875 C 3.53125 -25.484375 4.25 -25.765625 5.125 -25.765625 C 6 -25.765625 6.710938 -25.484375 7.265625 -24.921875 C 7.828125 -24.367188 8.109375 -23.65625 8.109375 -22.78125 C 8.109375 -21.90625 7.828125 -21.179688 7.265625 -20.609375 C 6.710938 -20.046875 6 -19.765625 5.125 -19.765625 C 4.25 -19.765625 3.53125 -20.046875 2.96875 -20.609375 C 2.414062 -21.179688 2.140625 -21.90625 2.140625 -22.78125 C 2.140625 -23.65625 2.414062 -24.367188 2.96875 -24.921875 Z M 7.90625 0 L 2.265625 0 L 2.265625 -17.6875 L 7.90625 -17.6875 Z M 7.90625 0 "/></g></g></g><g fill="#00459a" fill-opacity="1"><g transform="translate(205.314423, 194.732579)"><g><path d="M 25.90625 -17.953125 C 27.851562 -17.953125 29.398438 -17.332031 30.546875 -16.09375 C 31.691406 -14.863281 32.265625 -13.21875 32.265625 -11.15625 L 32.265625 0 L 26.625 0 L 26.625 -9.578125 C 26.625 -10.628906 26.347656 -11.457031 25.796875 -12.0625 C 25.253906 -12.664062 24.515625 -12.96875 23.578125 -12.96875 C 22.523438 -12.945312 21.6875 -12.546875 21.0625 -11.765625 C 20.4375 -10.992188 20.125 -9.992188 20.125 -8.765625 L 20.125 0 L 14.4375 0 L 14.4375 -9.578125 C 14.4375 -10.628906 14.164062 -11.457031 13.625 -12.0625 C 13.09375 -12.664062 12.359375 -12.96875 11.421875 -12.96875 C 10.347656 -12.945312 9.492188 -12.539062 8.859375 -11.75 C 8.222656 -10.96875 7.90625 -9.972656 7.90625 -8.765625 L 7.90625 0 L 2.265625 0 L 2.265625 -17.6875 L 7.90625 -17.6875 L 7.90625 -14.765625 C 9.113281 -16.847656 11.0625 -17.910156 13.75 -17.953125 C 15.175781 -17.953125 16.40625 -17.597656 17.4375 -16.890625 C 18.476562 -16.179688 19.21875 -15.203125 19.65625 -13.953125 C 20.820312 -16.578125 22.90625 -17.910156 25.90625 -17.953125 Z M 25.90625 -17.953125 "/></g></g></g><g fill="#00459a" fill-opacity="1"><g transform="translate(237.71134, 194.732579)"><g><path d="M 10.015625 -17.890625 C 13.078125 -17.890625 15.378906 -16.945312 16.921875 -15.0625 C 18.460938 -13.1875 19.132812 -10.609375 18.9375 -7.328125 L 6.5 -7.328125 C 6.78125 -6.273438 7.28125 -5.460938 8 -4.890625 C 8.726562 -4.316406 9.617188 -4.03125 10.671875 -4.03125 C 12.285156 -4.03125 13.695312 -4.632812 14.90625 -5.84375 L 17.890625 -2.921875 C 15.984375 -0.835938 13.410156 0.203125 10.171875 0.203125 C 7.304688 0.203125 5.023438 -0.617188 3.328125 -2.265625 C 1.628906 -3.910156 0.78125 -6.085938 0.78125 -8.796875 C 0.78125 -11.535156 1.628906 -13.734375 3.328125 -15.390625 C 5.023438 -17.054688 7.253906 -17.890625 10.015625 -17.890625 Z M 6.40625 -10.375 L 13.5 -10.375 C 13.5 -11.445312 13.1875 -12.3125 12.5625 -12.96875 C 11.9375 -13.625 11.109375 -13.953125 10.078125 -13.953125 C 9.117188 -13.953125 8.3125 -13.628906 7.65625 -12.984375 C 7 -12.335938 6.582031 -11.46875 6.40625 -10.375 Z M 6.40625 -10.375 "/></g></g></g></svg>